<?xml version="1.0" encoding="UTF-8"?>
<svg xmlns="http://www.w3.org/2000/svg" xmlns:xlink="http://www.w3.org/1999/xlink" width="854" height="480" viewBox="0 0 854 480">
<defs>
<g>
<g id="glyph-0-0">
<path d="M 1.191406 -1.128906 L 1.191406 -2.394531 L 1.160156 -2.394531 L 0.292969 -1.171875 L 0.292969 -1.128906 Z M 0.0820312 -1.140625 C 0.09375 -1.164062 0.105469 -1.1875 0.117188 -1.207031 C 0.128906 -1.226562 0.171875 -1.285156 0.238281 -1.378906 L 0.699219 -2.035156 L 1.296875 -2.824219 L 1.476562 -3.054688 L 1.828125 -3.054688 L 1.828125 -1.128906 L 2.105469 -1.128906 L 2.105469 -0.636719 L 1.828125 -0.636719 L 1.828125 0 L 1.1875 0 L 1.1875 -0.636719 L 0.0820312 -0.636719 Z "/>
</g>
<g id="glyph-0-1">
<path d="M 0.355469 -0.3125 C 0.355469 -0.417969 0.390625 -0.503906 0.464844 -0.578125 C 0.535156 -0.652344 0.625 -0.6875 0.730469 -0.6875 C 0.832031 -0.6875 0.921875 -0.652344 0.996094 -0.578125 C 1.070312 -0.503906 1.105469 -0.417969 1.105469 -0.3125 C 1.105469 -0.207031 1.066406 -0.121094 0.996094 -0.046875 C 0.921875 0.0273438 0.832031 0.0625 0.730469 0.0625 C 0.625 0.0625 0.535156 0.0273438 0.464844 -0.046875 C 0.390625 -0.121094 0.355469 -0.207031 0.355469 -0.3125 Z "/>
</g>
<g id="glyph-0-2">
<path d="M 0.0625 -0.101562 C 0.136719 -0.113281 0.199219 -0.136719 0.25 -0.171875 C 0.304688 -0.210938 0.382812 -0.292969 0.492188 -0.425781 C 0.539062 -0.480469 0.597656 -0.558594 0.671875 -0.65625 C 0.746094 -0.753906 0.804688 -0.832031 0.851562 -0.894531 L 0.28125 -1.769531 C 0.234375 -1.839844 0.199219 -1.882812 0.171875 -1.902344 C 0.144531 -1.917969 0.101562 -1.929688 0.0507812 -1.9375 L 0.0507812 -2.046875 L 1.160156 -2.046875 L 1.160156 -1.9375 C 1.058594 -1.921875 1 -1.914062 0.980469 -1.90625 C 0.964844 -1.898438 0.953125 -1.882812 0.953125 -1.855469 C 0.953125 -1.820312 0.992188 -1.746094 1.070312 -1.632812 C 1.144531 -1.519531 1.210938 -1.421875 1.269531 -1.347656 C 1.417969 -1.53125 1.507812 -1.652344 1.546875 -1.703125 C 1.582031 -1.753906 1.597656 -1.800781 1.597656 -1.832031 C 1.597656 -1.875 1.582031 -1.90625 1.546875 -1.917969 C 1.511719 -1.929688 1.453125 -1.933594 1.371094 -1.9375 L 1.371094 -2.046875 L 2.117188 -2.046875 L 2.117188 -1.9375 C 2.0625 -1.925781 2.015625 -1.914062 1.980469 -1.902344 C 1.914062 -1.871094 1.859375 -1.828125 1.808594 -1.769531 L 1.355469 -1.207031 L 2.015625 -0.195312 C 2.03125 -0.171875 2.050781 -0.152344 2.070312 -0.140625 C 2.089844 -0.128906 2.113281 -0.113281 2.148438 -0.101562 L 2.148438 0 L 1.078125 0 L 1.078125 -0.101562 C 1.140625 -0.105469 1.191406 -0.113281 1.226562 -0.125 C 1.261719 -0.136719 1.28125 -0.160156 1.28125 -0.199219 C 1.28125 -0.222656 1.265625 -0.261719 1.234375 -0.316406 C 1.21875 -0.351562 1.1875 -0.398438 1.148438 -0.457031 C 1.128906 -0.492188 1.097656 -0.535156 1.058594 -0.59375 C 1.015625 -0.652344 0.980469 -0.707031 0.945312 -0.757812 C 0.851562 -0.640625 0.78125 -0.546875 0.734375 -0.480469 C 0.636719 -0.34375 0.589844 -0.257812 0.589844 -0.21875 C 0.589844 -0.171875 0.609375 -0.140625 0.644531 -0.128906 C 0.683594 -0.113281 0.738281 -0.105469 0.8125 -0.101562 L 0.8125 0 L 0.0625 0 Z "/>
</g>
</g>
</defs>
<g fill="rgb(100%, 100%, 0%)" fill-opacity="1">
<use xlink:href="#glyph-0-0" x="30" y="23.333008"/>
<use xlink:href="#glyph-0-1" x="32" y="23.333008"/>
<use xlink:href="#glyph-0-0" x="33" y="23.333008"/>
<use xlink:href="#glyph-0-2" x="35" y="23.333008"/>
</g>
</svg>
