<?xml version="1.0" encoding="UTF-8"?>
<svg xmlns="http://www.w3.org/2000/svg" xmlns:xlink="http://www.w3.org/1999/xlink" width="854" height="480" viewBox="0 0 854 480">
<defs>
<g>
<g id="glyph-0-0">
<path d="M 1.472656 -0.4375 L 1.417969 -0.457031 C 1.402344 -0.417969 1.386719 -0.386719 1.371094 -0.363281 C 1.355469 -0.335938 1.339844 -0.316406 1.320312 -0.300781 C 1.300781 -0.285156 1.28125 -0.273438 1.253906 -0.269531 C 1.226562 -0.261719 1.191406 -0.261719 1.148438 -0.261719 L 0.519531 -0.261719 L 0.519531 -0.265625 C 0.546875 -0.28125 0.589844 -0.308594 0.648438 -0.34375 C 0.703125 -0.378906 0.777344 -0.433594 0.863281 -0.503906 C 0.929688 -0.558594 0.992188 -0.609375 1.046875 -0.660156 C 1.101562 -0.710938 1.148438 -0.765625 1.191406 -0.820312 C 1.230469 -0.875 1.261719 -0.933594 1.285156 -0.996094 C 1.308594 -1.054688 1.320312 -1.125 1.320312 -1.195312 C 1.320312 -1.253906 1.308594 -1.308594 1.289062 -1.363281 C 1.265625 -1.417969 1.234375 -1.46875 1.191406 -1.507812 C 1.148438 -1.550781 1.09375 -1.582031 1.023438 -1.609375 C 0.957031 -1.632812 0.878906 -1.648438 0.785156 -1.648438 C 0.667969 -1.648438 0.570312 -1.621094 0.492188 -1.574219 C 0.414062 -1.527344 0.347656 -1.472656 0.300781 -1.410156 C 0.253906 -1.351562 0.21875 -1.292969 0.195312 -1.234375 C 0.171875 -1.179688 0.15625 -1.140625 0.148438 -1.125 L 0.210938 -1.101562 C 0.226562 -1.132812 0.246094 -1.167969 0.269531 -1.210938 C 0.292969 -1.25 0.320312 -1.285156 0.355469 -1.320312 C 0.390625 -1.351562 0.433594 -1.382812 0.484375 -1.40625 C 0.535156 -1.429688 0.59375 -1.441406 0.660156 -1.441406 C 0.773438 -1.441406 0.863281 -1.410156 0.929688 -1.355469 C 1 -1.300781 1.035156 -1.222656 1.035156 -1.117188 C 1.035156 -1.058594 1.027344 -1.003906 1.015625 -0.957031 C 1.003906 -0.910156 0.988281 -0.863281 0.960938 -0.820312 C 0.933594 -0.777344 0.898438 -0.730469 0.855469 -0.679688 C 0.8125 -0.632812 0.757812 -0.578125 0.695312 -0.515625 C 0.570312 -0.390625 0.460938 -0.292969 0.367188 -0.21875 C 0.273438 -0.144531 0.195312 -0.0859375 0.128906 -0.0351562 L 0.128906 0 L 1.328125 0 Z "/>
</g>
<g id="glyph-0-1">
<path d="M 0.828125 -1.648438 C 0.71875 -1.648438 0.621094 -1.625 0.527344 -1.582031 C 0.4375 -1.539062 0.355469 -1.476562 0.285156 -1.398438 C 0.21875 -1.320312 0.164062 -1.230469 0.125 -1.125 C 0.0859375 -1.015625 0.0664062 -0.898438 0.0664062 -0.773438 C 0.0664062 -0.652344 0.0859375 -0.542969 0.128906 -0.445312 C 0.167969 -0.347656 0.226562 -0.261719 0.296875 -0.191406 C 0.367188 -0.121094 0.445312 -0.0664062 0.535156 -0.03125 C 0.628906 0.0078125 0.722656 0.0273438 0.828125 0.0273438 C 0.921875 0.0273438 1.015625 0.0078125 1.105469 -0.03125 C 1.195312 -0.0664062 1.273438 -0.121094 1.34375 -0.191406 C 1.414062 -0.261719 1.472656 -0.347656 1.515625 -0.445312 C 1.558594 -0.542969 1.578125 -0.652344 1.578125 -0.773438 C 1.578125 -0.898438 1.558594 -1.015625 1.519531 -1.125 C 1.476562 -1.230469 1.421875 -1.320312 1.351562 -1.398438 C 1.285156 -1.476562 1.203125 -1.539062 1.113281 -1.582031 C 1.023438 -1.625 0.925781 -1.648438 0.828125 -1.648438 Z M 0.828125 -1.554688 C 0.878906 -1.554688 0.929688 -1.539062 0.980469 -1.515625 C 1.03125 -1.492188 1.078125 -1.449219 1.121094 -1.390625 C 1.164062 -1.332031 1.195312 -1.25 1.222656 -1.148438 C 1.246094 -1.050781 1.261719 -0.925781 1.261719 -0.777344 C 1.261719 -0.691406 1.253906 -0.609375 1.242188 -0.523438 C 1.230469 -0.441406 1.207031 -0.367188 1.175781 -0.296875 C 1.144531 -0.226562 1.097656 -0.171875 1.042969 -0.128906 C 0.984375 -0.0859375 0.914062 -0.0664062 0.828125 -0.0664062 C 0.742188 -0.0664062 0.671875 -0.0859375 0.613281 -0.128906 C 0.558594 -0.171875 0.511719 -0.226562 0.480469 -0.296875 C 0.445312 -0.367188 0.421875 -0.441406 0.410156 -0.523438 C 0.394531 -0.609375 0.386719 -0.691406 0.386719 -0.777344 C 0.386719 -0.925781 0.402344 -1.050781 0.429688 -1.148438 C 0.457031 -1.25 0.492188 -1.328125 0.535156 -1.390625 C 0.578125 -1.449219 0.625 -1.492188 0.679688 -1.515625 C 0.730469 -1.539062 0.78125 -1.554688 0.828125 -1.554688 Z "/>
</g>
<g id="glyph-0-2">
<path d="M 1.375 -2.144531 C 1.457031 -2.140625 1.515625 -2.132812 1.550781 -2.121094 C 1.585938 -2.113281 1.601562 -2.085938 1.601562 -2.039062 C 1.601562 -2.011719 1.59375 -1.980469 1.578125 -1.949219 C 1.558594 -1.917969 1.519531 -1.871094 1.460938 -1.8125 C 1.402344 -1.75 1.316406 -1.667969 1.203125 -1.566406 C 1.09375 -1.464844 0.941406 -1.328125 0.753906 -1.160156 L 0.753906 -1.84375 C 0.753906 -1.90625 0.757812 -1.953125 0.765625 -1.992188 C 0.773438 -2.027344 0.789062 -2.058594 0.808594 -2.078125 C 0.832031 -2.097656 0.863281 -2.113281 0.902344 -2.125 C 0.941406 -2.132812 0.996094 -2.140625 1.058594 -2.144531 L 1.058594 -2.207031 L 0.113281 -2.207031 L 0.113281 -2.144531 C 0.167969 -2.140625 0.214844 -2.132812 0.253906 -2.125 C 0.292969 -2.117188 0.324219 -2.101562 0.347656 -2.082031 C 0.371094 -2.0625 0.386719 -2.035156 0.398438 -1.996094 C 0.410156 -1.957031 0.414062 -1.90625 0.414062 -1.84375 L 0.414062 -0.398438 C 0.414062 -0.332031 0.410156 -0.277344 0.402344 -0.234375 C 0.394531 -0.191406 0.382812 -0.15625 0.363281 -0.132812 C 0.339844 -0.109375 0.308594 -0.0898438 0.269531 -0.0820312 C 0.230469 -0.0703125 0.179688 -0.0664062 0.113281 -0.0625 L 0.113281 0 L 1.054688 0 L 1.054688 -0.0625 C 0.988281 -0.0664062 0.9375 -0.0703125 0.898438 -0.0820312 C 0.855469 -0.0898438 0.824219 -0.109375 0.804688 -0.128906 C 0.785156 -0.152344 0.769531 -0.183594 0.761719 -0.21875 C 0.757812 -0.257812 0.753906 -0.304688 0.753906 -0.363281 L 0.753906 -0.988281 L 0.839844 -1.054688 L 1.191406 -0.707031 C 1.222656 -0.679688 1.261719 -0.636719 1.308594 -0.585938 C 1.359375 -0.53125 1.40625 -0.476562 1.453125 -0.421875 C 1.5 -0.363281 1.539062 -0.3125 1.574219 -0.261719 C 1.609375 -0.210938 1.625 -0.171875 1.625 -0.148438 C 1.625 -0.109375 1.609375 -0.0859375 1.578125 -0.078125 C 1.542969 -0.0742188 1.480469 -0.0664062 1.394531 -0.0625 L 1.394531 0 L 2.410156 0 L 2.410156 -0.0625 C 2.363281 -0.0625 2.320312 -0.0664062 2.277344 -0.0820312 C 2.238281 -0.0976562 2.195312 -0.121094 2.15625 -0.152344 C 2.117188 -0.183594 2.074219 -0.21875 2.03125 -0.265625 C 1.988281 -0.3125 1.941406 -0.363281 1.886719 -0.421875 L 1.109375 -1.257812 L 1.742188 -1.882812 C 1.804688 -1.941406 1.855469 -1.988281 1.894531 -2.019531 C 1.9375 -2.054688 1.972656 -2.078125 2.011719 -2.09375 C 2.046875 -2.109375 2.082031 -2.121094 2.117188 -2.128906 C 2.15625 -2.132812 2.199219 -2.140625 2.25 -2.144531 L 2.25 -2.207031 L 1.375 -2.207031 Z "/>
</g>
</g>
</defs>
<g fill="rgb(53.333333%, 53.333333%, 53.333333%)" fill-opacity="1">
<use xlink:href="#glyph-0-0" x="30" y="20"/>
<use xlink:href="#glyph-0-1" x="32" y="20"/>
<use xlink:href="#glyph-0-2" x="34" y="20"/>
</g>
</svg>
