<?xml version="1.0" encoding="UTF-8"?>
<svg xmlns="http://www.w3.org/2000/svg" xmlns:xlink="http://www.w3.org/1999/xlink" width="854" height="480" viewBox="0 0 854 480">
<defs>
<g>
<g id="glyph-0-0">
<path d="M 1.507812 -0.0546875 C 1.800781 -0.0546875 2 -0.226562 2.109375 -0.570312 C 2.167969 -0.757812 2.195312 -1.003906 2.195312 -1.304688 C 2.195312 -1.71875 2.132812 -2.03125 2.011719 -2.242188 C 1.886719 -2.453125 1.71875 -2.554688 1.507812 -2.554688 C 1.214844 -2.554688 1.011719 -2.382812 0.902344 -2.03125 C 0.847656 -1.84375 0.820312 -1.601562 0.820312 -1.304688 C 0.820312 -1.003906 0.847656 -0.757812 0.90625 -0.570312 C 1.011719 -0.226562 1.214844 -0.0546875 1.507812 -0.0546875 Z M 1.507812 -2.6875 C 1.902344 -2.6875 2.226562 -2.5625 2.484375 -2.308594 C 2.753906 -2.046875 2.886719 -1.714844 2.886719 -1.304688 C 2.886719 -0.894531 2.753906 -0.5625 2.484375 -0.300781 C 2.226562 -0.046875 1.898438 0.078125 1.507812 0.078125 C 1.09375 0.078125 0.753906 -0.0625 0.492188 -0.339844 C 0.246094 -0.597656 0.125 -0.914062 0.125 -1.285156 C 0.125 -1.691406 0.253906 -2.027344 0.507812 -2.289062 C 0.765625 -2.554688 1.101562 -2.6875 1.507812 -2.6875 Z "/>
</g>
<g id="glyph-0-1">
<path d="M 0.0703125 -0.09375 C 0.144531 -0.101562 0.195312 -0.121094 0.226562 -0.144531 C 0.253906 -0.171875 0.269531 -0.222656 0.273438 -0.300781 L 0.277344 -0.414062 L 0.277344 -1.472656 C 0.277344 -1.554688 0.261719 -1.609375 0.234375 -1.636719 C 0.207031 -1.667969 0.152344 -1.6875 0.0703125 -1.695312 L 0.0703125 -1.789062 L 0.808594 -1.789062 L 0.808594 -1.484375 C 0.890625 -1.59375 0.972656 -1.679688 1.054688 -1.742188 C 1.136719 -1.804688 1.230469 -1.835938 1.335938 -1.835938 C 1.414062 -1.835938 1.488281 -1.8125 1.550781 -1.757812 C 1.613281 -1.707031 1.648438 -1.632812 1.648438 -1.535156 C 1.648438 -1.457031 1.625 -1.394531 1.578125 -1.347656 C 1.535156 -1.296875 1.476562 -1.273438 1.402344 -1.273438 C 1.320312 -1.273438 1.25 -1.3125 1.191406 -1.386719 C 1.128906 -1.464844 1.085938 -1.503906 1.0625 -1.503906 C 1.011719 -1.503906 0.960938 -1.472656 0.90625 -1.410156 C 0.855469 -1.34375 0.828125 -1.253906 0.828125 -1.132812 L 0.828125 -0.398438 C 0.828125 -0.269531 0.847656 -0.1875 0.882812 -0.15625 C 0.921875 -0.125 0.996094 -0.101562 1.105469 -0.09375 L 1.105469 0 L 0.0703125 0 Z "/>
</g>
<g id="glyph-0-2">
<path d="M 0.980469 -0.164062 C 1.0625 -0.164062 1.136719 -0.203125 1.203125 -0.277344 C 1.269531 -0.351562 1.304688 -0.40625 1.304688 -0.433594 L 1.304688 -1.378906 C 1.304688 -1.410156 1.277344 -1.460938 1.21875 -1.519531 C 1.164062 -1.582031 1.085938 -1.613281 0.992188 -1.613281 C 0.855469 -1.613281 0.761719 -1.519531 0.710938 -1.328125 C 0.683594 -1.226562 0.671875 -1.078125 0.671875 -0.894531 C 0.671875 -0.691406 0.683594 -0.542969 0.710938 -0.441406 C 0.757812 -0.257812 0.847656 -0.164062 0.980469 -0.164062 Z M 0.0976562 -0.839844 C 0.0976562 -1.148438 0.171875 -1.390625 0.316406 -1.570312 C 0.464844 -1.746094 0.640625 -1.835938 0.84375 -1.835938 C 0.945312 -1.835938 1.039062 -1.8125 1.117188 -1.761719 C 1.167969 -1.730469 1.230469 -1.675781 1.304688 -1.597656 L 1.304688 -2.308594 C 1.304688 -2.40625 1.285156 -2.46875 1.246094 -2.492188 C 1.210938 -2.515625 1.132812 -2.527344 1.011719 -2.535156 L 1.011719 -2.628906 L 1.851562 -2.628906 L 1.851562 -0.390625 C 1.851562 -0.308594 1.863281 -0.253906 1.894531 -0.222656 C 1.925781 -0.191406 1.984375 -0.171875 2.074219 -0.164062 L 2.074219 -0.0742188 C 1.855469 -0.0546875 1.714844 -0.0390625 1.652344 -0.0273438 C 1.589844 -0.015625 1.476562 0.0117188 1.316406 0.0546875 L 1.316406 -0.203125 C 1.242188 -0.125 1.175781 -0.0703125 1.117188 -0.03125 C 1.019531 0.0273438 0.917969 0.0546875 0.804688 0.0546875 C 0.613281 0.0546875 0.449219 -0.0234375 0.308594 -0.1875 C 0.167969 -0.347656 0.0976562 -0.566406 0.0976562 -0.839844 Z "/>
</g>
<g id="glyph-0-3">
<path d="M 0.0859375 -0.890625 C 0.0859375 -1.160156 0.167969 -1.386719 0.335938 -1.570312 C 0.503906 -1.75 0.710938 -1.839844 0.964844 -1.839844 C 1.21875 -1.839844 1.429688 -1.746094 1.59375 -1.5625 C 1.757812 -1.378906 1.839844 -1.152344 1.839844 -0.890625 C 1.839844 -0.632812 1.757812 -0.40625 1.597656 -0.222656 C 1.433594 -0.0351562 1.222656 0.0585938 0.964844 0.0585938 C 0.710938 0.0585938 0.5 -0.03125 0.335938 -0.214844 C 0.167969 -0.394531 0.0859375 -0.621094 0.0859375 -0.890625 Z M 0.65625 -0.890625 C 0.65625 -0.617188 0.671875 -0.429688 0.699219 -0.320312 C 0.742188 -0.152344 0.832031 -0.0664062 0.964844 -0.0664062 C 1.089844 -0.0664062 1.171875 -0.132812 1.210938 -0.261719 C 1.25 -0.390625 1.269531 -0.597656 1.269531 -0.890625 C 1.269531 -1.179688 1.25 -1.390625 1.207031 -1.519531 C 1.164062 -1.648438 1.085938 -1.714844 0.964844 -1.714844 C 0.832031 -1.714844 0.746094 -1.628906 0.699219 -1.460938 C 0.671875 -1.347656 0.65625 -1.160156 0.65625 -0.890625 Z "/>
</g>
<g id="glyph-0-4">
<rect x="0" y="0" width="0" height="0" mask="url(#mask-0)"/>
</g>
<g id="glyph-0-5">
<path d="M 1.042969 -0.988281 L 1.042969 -2.097656 L 1.015625 -2.097656 L 0.257812 -1.027344 L 0.257812 -0.988281 Z M 0.0703125 -1 C 0.0820312 -1.019531 0.0898438 -1.039062 0.101562 -1.058594 C 0.113281 -1.074219 0.148438 -1.125 0.207031 -1.207031 L 0.613281 -1.78125 L 1.132812 -2.472656 L 1.292969 -2.675781 L 1.601562 -2.675781 L 1.601562 -0.988281 L 1.84375 -0.988281 L 1.84375 -0.554688 L 1.601562 -0.554688 L 1.601562 0 L 1.039062 0 L 1.039062 -0.554688 L 0.0703125 -0.554688 Z "/>
</g>
<g id="glyph-0-6">
<path d="M 0.308594 -0.273438 C 0.308594 -0.363281 0.339844 -0.441406 0.40625 -0.507812 C 0.46875 -0.570312 0.546875 -0.601562 0.636719 -0.601562 C 0.730469 -0.601562 0.808594 -0.570312 0.871094 -0.507812 C 0.933594 -0.441406 0.964844 -0.363281 0.964844 -0.273438 C 0.964844 -0.183594 0.933594 -0.105469 0.871094 -0.0390625 C 0.808594 0.0234375 0.730469 0.0546875 0.636719 0.0546875 C 0.546875 0.0546875 0.46875 0.0234375 0.40625 -0.0390625 C 0.34375 -0.105469 0.308594 -0.183594 0.308594 -0.273438 Z "/>
</g>
<g id="glyph-0-7">
<path d="M 0.0546875 -0.0898438 C 0.117188 -0.0976562 0.171875 -0.121094 0.21875 -0.152344 C 0.265625 -0.183594 0.335938 -0.257812 0.429688 -0.371094 C 0.46875 -0.421875 0.523438 -0.488281 0.585938 -0.574219 C 0.652344 -0.660156 0.703125 -0.730469 0.746094 -0.78125 L 0.246094 -1.546875 C 0.207031 -1.609375 0.175781 -1.648438 0.148438 -1.664062 C 0.125 -1.679688 0.0898438 -1.691406 0.0429688 -1.695312 L 0.0429688 -1.789062 L 1.015625 -1.789062 L 1.015625 -1.695312 C 0.925781 -1.683594 0.875 -1.675781 0.859375 -1.667969 C 0.84375 -1.664062 0.835938 -1.648438 0.835938 -1.625 C 0.835938 -1.59375 0.867188 -1.53125 0.933594 -1.429688 C 1 -1.328125 1.058594 -1.246094 1.109375 -1.179688 C 1.238281 -1.339844 1.320312 -1.445312 1.351562 -1.492188 C 1.382812 -1.535156 1.398438 -1.574219 1.398438 -1.605469 C 1.398438 -1.644531 1.382812 -1.667969 1.351562 -1.675781 C 1.320312 -1.6875 1.269531 -1.695312 1.199219 -1.695312 L 1.199219 -1.789062 L 1.855469 -1.789062 L 1.855469 -1.695312 C 1.804688 -1.6875 1.765625 -1.675781 1.734375 -1.664062 C 1.675781 -1.636719 1.625 -1.601562 1.582031 -1.546875 L 1.1875 -1.058594 L 1.765625 -0.171875 C 1.777344 -0.148438 1.792969 -0.132812 1.8125 -0.121094 C 1.828125 -0.109375 1.851562 -0.101562 1.878906 -0.0898438 L 1.878906 0 L 0.945312 0 L 0.945312 -0.0898438 C 1 -0.09375 1.042969 -0.0976562 1.074219 -0.109375 C 1.105469 -0.117188 1.121094 -0.140625 1.121094 -0.171875 C 1.121094 -0.195312 1.105469 -0.230469 1.082031 -0.277344 C 1.066406 -0.304688 1.039062 -0.347656 1.007812 -0.402344 C 0.988281 -0.429688 0.960938 -0.46875 0.925781 -0.519531 C 0.890625 -0.570312 0.855469 -0.621094 0.828125 -0.664062 C 0.746094 -0.558594 0.683594 -0.480469 0.644531 -0.421875 C 0.558594 -0.300781 0.515625 -0.226562 0.515625 -0.191406 C 0.515625 -0.152344 0.53125 -0.125 0.566406 -0.113281 C 0.597656 -0.101562 0.644531 -0.0898438 0.710938 -0.0898438 L 0.710938 0 L 0.0546875 0 Z "/>
</g>
<g id="glyph-0-8">
<path d="M 2.203125 -0.941406 L 0.0078125 0.0546875 L 0.0078125 -0.378906 L 1.429688 -1.011719 L 0.0078125 -1.652344 L 0.0078125 -2.078125 L 2.203125 -1.089844 Z "/>
</g>
<g id="glyph-0-9">
<path d="M 0.417969 -2.386719 C 0.417969 -2.46875 0.449219 -2.539062 0.507812 -2.597656 C 0.566406 -2.65625 0.636719 -2.6875 0.71875 -2.6875 C 0.800781 -2.6875 0.871094 -2.65625 0.933594 -2.597656 C 0.992188 -2.539062 1.023438 -2.46875 1.023438 -2.386719 C 1.023438 -2.300781 0.992188 -2.230469 0.933594 -2.171875 C 0.875 -2.113281 0.800781 -2.082031 0.71875 -2.082031 C 0.636719 -2.082031 0.566406 -2.113281 0.507812 -2.171875 C 0.449219 -2.230469 0.417969 -2.300781 0.417969 -2.386719 Z M -0.226562 0.398438 C -0.226562 0.335938 -0.203125 0.28125 -0.164062 0.238281 C -0.121094 0.191406 -0.0585938 0.167969 0.015625 0.167969 C 0.0742188 0.167969 0.128906 0.1875 0.175781 0.222656 C 0.222656 0.261719 0.246094 0.3125 0.246094 0.375 C 0.246094 0.417969 0.230469 0.464844 0.203125 0.511719 C 0.171875 0.5625 0.15625 0.59375 0.15625 0.609375 C 0.15625 0.632812 0.171875 0.648438 0.199219 0.660156 C 0.226562 0.667969 0.257812 0.671875 0.285156 0.671875 C 0.359375 0.671875 0.410156 0.644531 0.433594 0.59375 C 0.457031 0.542969 0.472656 0.472656 0.472656 0.378906 L 0.472656 -1.472656 C 0.472656 -1.554688 0.453125 -1.609375 0.421875 -1.644531 C 0.390625 -1.675781 0.324219 -1.691406 0.222656 -1.695312 L 0.222656 -1.789062 L 1.007812 -1.789062 L 1.007812 -0.0078125 C 1.007812 0.15625 0.992188 0.285156 0.964844 0.378906 C 0.9375 0.476562 0.882812 0.558594 0.800781 0.628906 C 0.75 0.675781 0.679688 0.714844 0.589844 0.746094 C 0.5 0.777344 0.402344 0.792969 0.300781 0.792969 C 0.199219 0.792969 0.0976562 0.773438 0.00390625 0.730469 C -0.148438 0.664062 -0.226562 0.550781 -0.226562 0.398438 Z "/>
</g>
<g id="glyph-0-10">
<path d="M 0.0976562 -0.589844 L 0.207031 -0.589844 C 0.246094 -0.402344 0.316406 -0.269531 0.417969 -0.195312 C 0.523438 -0.117188 0.628906 -0.078125 0.738281 -0.078125 C 0.839844 -0.078125 0.914062 -0.101562 0.960938 -0.148438 C 1.007812 -0.191406 1.03125 -0.25 1.03125 -0.324219 C 1.03125 -0.394531 1.003906 -0.453125 0.953125 -0.503906 C 0.925781 -0.53125 0.878906 -0.558594 0.820312 -0.589844 L 0.53125 -0.730469 C 0.378906 -0.804688 0.269531 -0.886719 0.203125 -0.972656 C 0.136719 -1.058594 0.101562 -1.164062 0.101562 -1.28125 C 0.101562 -1.433594 0.15625 -1.5625 0.261719 -1.671875 C 0.367188 -1.78125 0.511719 -1.835938 0.699219 -1.835938 C 0.78125 -1.835938 0.871094 -1.824219 0.964844 -1.796875 C 1.054688 -1.769531 1.113281 -1.753906 1.136719 -1.753906 C 1.167969 -1.753906 1.191406 -1.761719 1.203125 -1.773438 C 1.214844 -1.789062 1.226562 -1.808594 1.238281 -1.832031 L 1.320312 -1.832031 L 1.320312 -1.269531 L 1.222656 -1.269531 C 1.1875 -1.402344 1.125 -1.507812 1.042969 -1.585938 C 0.960938 -1.664062 0.863281 -1.707031 0.75 -1.707031 C 0.664062 -1.707031 0.601562 -1.679688 0.558594 -1.632812 C 0.515625 -1.585938 0.492188 -1.535156 0.492188 -1.476562 C 0.492188 -1.433594 0.511719 -1.386719 0.550781 -1.339844 C 0.585938 -1.292969 0.65625 -1.246094 0.757812 -1.195312 L 0.972656 -1.09375 C 1.105469 -1.03125 1.199219 -0.96875 1.261719 -0.910156 C 1.363281 -0.808594 1.414062 -0.683594 1.414062 -0.535156 C 1.414062 -0.390625 1.359375 -0.257812 1.257812 -0.132812 C 1.152344 -0.0078125 0.996094 0.0546875 0.785156 0.0546875 C 0.734375 0.0546875 0.683594 0.0507812 0.628906 0.0390625 C 0.578125 0.0273438 0.511719 0.0078125 0.433594 -0.015625 L 0.367188 -0.0390625 C 0.34375 -0.046875 0.328125 -0.0546875 0.324219 -0.0546875 C 0.316406 -0.0546875 0.3125 -0.0585938 0.300781 -0.0585938 C 0.28125 -0.0585938 0.261719 -0.046875 0.246094 -0.03125 C 0.230469 -0.015625 0.210938 0.015625 0.191406 0.0546875 L 0.0976562 0.0546875 Z "/>
</g>
<g id="glyph-0-11">
<path d="M 0.0625 -0.09375 C 0.132812 -0.101562 0.1875 -0.121094 0.21875 -0.152344 C 0.253906 -0.179688 0.269531 -0.238281 0.269531 -0.328125 L 0.269531 -1.472656 C 0.269531 -1.550781 0.257812 -1.605469 0.230469 -1.636719 C 0.203125 -1.667969 0.144531 -1.6875 0.0625 -1.695312 L 0.0625 -1.789062 L 0.800781 -1.789062 L 0.800781 -1.511719 C 0.863281 -1.605469 0.941406 -1.683594 1.035156 -1.746094 C 1.132812 -1.804688 1.238281 -1.835938 1.355469 -1.835938 C 1.523438 -1.835938 1.652344 -1.792969 1.742188 -1.707031 C 1.835938 -1.621094 1.878906 -1.46875 1.878906 -1.253906 L 1.878906 -0.3125 C 1.878906 -0.226562 1.894531 -0.167969 1.925781 -0.144531 C 1.953125 -0.117188 2.003906 -0.101562 2.074219 -0.09375 L 2.074219 0 L 1.160156 0 L 1.160156 -0.09375 C 1.230469 -0.105469 1.277344 -0.125 1.304688 -0.148438 C 1.328125 -0.171875 1.339844 -0.230469 1.339844 -0.3125 L 1.339844 -1.253906 C 1.339844 -1.34375 1.332031 -1.410156 1.3125 -1.453125 C 1.285156 -1.535156 1.222656 -1.574219 1.132812 -1.574219 C 1.066406 -1.574219 1.003906 -1.550781 0.949219 -1.5 C 0.890625 -1.453125 0.847656 -1.402344 0.820312 -1.355469 L 0.820312 -0.3125 C 0.820312 -0.226562 0.832031 -0.175781 0.855469 -0.148438 C 0.882812 -0.125 0.929688 -0.105469 1 -0.09375 L 1 0 L 0.0625 0 Z "/>
</g>
<g id="glyph-0-12">
<path d="M 0.171875 -1.113281 L 1.113281 -1.113281 L 1.113281 -0.664062 L 0.171875 -0.664062 Z "/>
</g>
<g id="glyph-0-13">
<path d="M 0.796875 -1.789062 L 0.796875 -0.472656 C 0.796875 -0.394531 0.804688 -0.335938 0.824219 -0.296875 C 0.855469 -0.234375 0.921875 -0.203125 1.019531 -0.203125 C 1.082031 -0.203125 1.144531 -0.222656 1.203125 -0.261719 C 1.238281 -0.28125 1.28125 -0.316406 1.332031 -0.367188 L 1.332031 -1.472656 C 1.332031 -1.554688 1.316406 -1.609375 1.28125 -1.640625 C 1.25 -1.671875 1.1875 -1.691406 1.089844 -1.695312 L 1.089844 -1.789062 L 1.863281 -1.789062 L 1.863281 -0.390625 C 1.863281 -0.308594 1.878906 -0.253906 1.910156 -0.222656 C 1.941406 -0.191406 2 -0.171875 2.085938 -0.164062 L 2.085938 -0.0742188 C 1.847656 -0.0507812 1.695312 -0.0351562 1.632812 -0.0273438 C 1.570312 -0.015625 1.46875 0.0117188 1.332031 0.0546875 L 1.332031 -0.203125 C 1.238281 -0.121094 1.164062 -0.0664062 1.101562 -0.03125 C 0.996094 0.0273438 0.882812 0.0546875 0.769531 0.0546875 C 0.644531 0.0546875 0.527344 0.015625 0.417969 -0.0664062 C 0.308594 -0.144531 0.257812 -0.285156 0.257812 -0.488281 L 0.257812 -1.472656 C 0.257812 -1.554688 0.242188 -1.609375 0.214844 -1.632812 C 0.1875 -1.660156 0.136719 -1.679688 0.0625 -1.695312 L 0.0625 -1.789062 Z "/>
</g>
<g id="glyph-0-14">
<path d="M 0.0625 -0.09375 C 0.132812 -0.109375 0.179688 -0.132812 0.207031 -0.160156 C 0.234375 -0.1875 0.25 -0.242188 0.25 -0.328125 L 0.25 -2.308594 C 0.25 -2.390625 0.238281 -2.445312 0.210938 -2.472656 C 0.183594 -2.496094 0.136719 -2.515625 0.0625 -2.535156 L 0.0625 -2.628906 L 0.800781 -2.628906 L 0.800781 -0.328125 C 0.800781 -0.242188 0.8125 -0.1875 0.839844 -0.160156 C 0.867188 -0.132812 0.917969 -0.109375 0.988281 -0.09375 L 0.988281 0 L 0.0625 0 Z "/>
</g>
<g id="glyph-0-15">
<path d="M 0.0859375 -0.894531 C 0.0859375 -1.191406 0.167969 -1.421875 0.324219 -1.589844 C 0.484375 -1.753906 0.675781 -1.835938 0.898438 -1.835938 C 1.027344 -1.835938 1.148438 -1.804688 1.261719 -1.734375 C 1.375 -1.667969 1.460938 -1.574219 1.519531 -1.457031 C 1.566406 -1.367188 1.597656 -1.25 1.617188 -1.105469 C 1.625 -1.039062 1.628906 -0.988281 1.628906 -0.953125 L 0.636719 -0.953125 C 0.648438 -0.796875 0.671875 -0.664062 0.714844 -0.550781 C 0.789062 -0.335938 0.921875 -0.226562 1.113281 -0.226562 C 1.207031 -0.226562 1.292969 -0.257812 1.375 -0.3125 C 1.421875 -0.347656 1.484375 -0.40625 1.558594 -0.484375 L 1.648438 -0.429688 C 1.527344 -0.234375 1.386719 -0.0976562 1.230469 -0.0195312 C 1.125 0.03125 1.007812 0.0546875 0.875 0.0546875 C 0.683594 0.0546875 0.503906 -0.0195312 0.339844 -0.171875 C 0.171875 -0.320312 0.0859375 -0.5625 0.0859375 -0.894531 Z M 1.152344 -1.097656 C 1.148438 -1.328125 1.128906 -1.488281 1.097656 -1.578125 C 1.066406 -1.667969 1 -1.714844 0.898438 -1.714844 C 0.796875 -1.714844 0.730469 -1.664062 0.691406 -1.558594 C 0.65625 -1.453125 0.632812 -1.300781 0.628906 -1.097656 Z "/>
</g>
</g>
<image id="source-4559" x="0" y="0" width="0" height="0"/>
<mask id="mask-0">
<use xlink:href="#source-4559"/>
</mask>
</defs>
<g fill="rgb(100%, 100%, 0%)" fill-opacity="1">
<use xlink:href="#glyph-0-0" x="30" y="22.916992"/>
<use xlink:href="#glyph-0-1" x="33" y="22.916992"/>
<use xlink:href="#glyph-0-2" x="35" y="22.916992"/>
<use xlink:href="#glyph-0-3" x="37" y="22.916992"/>
<use xlink:href="#glyph-0-4" x="39" y="22.916992"/>
<use xlink:href="#glyph-0-5" x="40" y="22.916992"/>
<use xlink:href="#glyph-0-6" x="42" y="22.916992"/>
<use xlink:href="#glyph-0-5" x="43" y="22.916992"/>
<use xlink:href="#glyph-0-7" x="45" y="22.916992"/>
<use xlink:href="#glyph-0-4" x="47" y="22.916992"/>
<use xlink:href="#glyph-0-8" x="48" y="22.916992"/>
<use xlink:href="#glyph-0-4" x="50" y="22.916992"/>
<use xlink:href="#glyph-0-9" x="51" y="22.916992"/>
<use xlink:href="#glyph-0-10" x="52" y="22.916992"/>
<use xlink:href="#glyph-0-3" x="54" y="22.916992"/>
<use xlink:href="#glyph-0-11" x="56" y="22.916992"/>
<use xlink:href="#glyph-0-12" x="58" y="22.916992"/>
<use xlink:href="#glyph-0-1" x="59" y="22.916992"/>
<use xlink:href="#glyph-0-13" x="61" y="22.916992"/>
<use xlink:href="#glyph-0-14" x="63" y="22.916992"/>
<use xlink:href="#glyph-0-15" x="64" y="22.916992"/>
<use xlink:href="#glyph-0-10" x="66" y="22.916992"/>
</g>
</svg>
