<?xml version="1.0" encoding="UTF-8"?>
<svg xmlns="http://www.w3.org/2000/svg" xmlns:xlink="http://www.w3.org/1999/xlink" width="854" height="480" viewBox="0 0 854 480">
<defs>
<g>
<g id="glyph-0-0">
<path d="M 0.234375 -1.191406 C 0.238281 -1.199219 0.25 -1.222656 0.269531 -1.261719 C 0.289062 -1.304688 0.320312 -1.347656 0.359375 -1.390625 C 0.398438 -1.4375 0.449219 -1.476562 0.511719 -1.511719 C 0.574219 -1.546875 0.652344 -1.566406 0.738281 -1.566406 C 0.800781 -1.566406 0.859375 -1.558594 0.910156 -1.535156 C 0.960938 -1.515625 1.003906 -1.488281 1.039062 -1.453125 C 1.074219 -1.414062 1.101562 -1.375 1.121094 -1.328125 C 1.140625 -1.28125 1.148438 -1.230469 1.148438 -1.175781 C 1.148438 -1.128906 1.140625 -1.082031 1.121094 -1.03125 C 1.105469 -0.980469 1.074219 -0.929688 1.03125 -0.878906 C 0.988281 -0.828125 0.929688 -0.78125 0.851562 -0.738281 C 0.773438 -0.691406 0.675781 -0.648438 0.558594 -0.613281 L 0.558594 -0.554688 C 0.671875 -0.554688 0.769531 -0.546875 0.859375 -0.527344 C 0.949219 -0.511719 1.027344 -0.476562 1.09375 -0.429688 C 1.15625 -0.382812 1.207031 -0.320312 1.238281 -0.242188 C 1.273438 -0.164062 1.292969 -0.0625 1.292969 0.0585938 C 1.292969 0.132812 1.277344 0.199219 1.25 0.261719 C 1.21875 0.320312 1.183594 0.371094 1.140625 0.414062 C 1.09375 0.457031 1.046875 0.492188 0.992188 0.515625 C 0.9375 0.539062 0.882812 0.546875 0.832031 0.546875 C 0.761719 0.546875 0.707031 0.539062 0.660156 0.515625 C 0.613281 0.496094 0.570312 0.472656 0.53125 0.445312 C 0.492188 0.421875 0.457031 0.398438 0.421875 0.375 C 0.386719 0.355469 0.347656 0.34375 0.308594 0.34375 C 0.257812 0.34375 0.222656 0.355469 0.199219 0.378906 C 0.175781 0.402344 0.164062 0.4375 0.164062 0.476562 C 0.164062 0.535156 0.195312 0.582031 0.261719 0.621094 C 0.324219 0.660156 0.429688 0.679688 0.570312 0.679688 C 0.6875 0.679688 0.804688 0.664062 0.925781 0.628906 C 1.042969 0.597656 1.148438 0.546875 1.242188 0.476562 C 1.335938 0.40625 1.414062 0.316406 1.472656 0.207031 C 1.53125 0.0976562 1.558594 -0.0351562 1.558594 -0.1875 C 1.558594 -0.285156 1.542969 -0.371094 1.511719 -0.445312 C 1.480469 -0.519531 1.4375 -0.582031 1.390625 -0.628906 C 1.34375 -0.679688 1.292969 -0.71875 1.242188 -0.746094 C 1.1875 -0.773438 1.144531 -0.792969 1.105469 -0.800781 C 1.140625 -0.824219 1.175781 -0.851562 1.214844 -0.882812 C 1.253906 -0.914062 1.289062 -0.953125 1.320312 -0.996094 C 1.355469 -1.039062 1.382812 -1.085938 1.40625 -1.140625 C 1.425781 -1.195312 1.4375 -1.253906 1.4375 -1.316406 C 1.4375 -1.394531 1.421875 -1.460938 1.386719 -1.523438 C 1.355469 -1.582031 1.3125 -1.628906 1.261719 -1.667969 C 1.207031 -1.707031 1.148438 -1.734375 1.082031 -1.753906 C 1.019531 -1.773438 0.953125 -1.785156 0.886719 -1.785156 C 0.75 -1.785156 0.636719 -1.757812 0.550781 -1.710938 C 0.460938 -1.660156 0.390625 -1.601562 0.339844 -1.539062 C 0.285156 -1.472656 0.246094 -1.410156 0.222656 -1.34375 C 0.195312 -1.28125 0.179688 -1.234375 0.167969 -1.203125 Z "/>
</g>
<g id="glyph-0-1">
<path d="M 0.894531 -1.785156 C 0.78125 -1.785156 0.671875 -1.761719 0.570312 -1.714844 C 0.472656 -1.667969 0.386719 -1.601562 0.308594 -1.515625 C 0.234375 -1.433594 0.175781 -1.332031 0.136719 -1.214844 C 0.09375 -1.101562 0.0703125 -0.976562 0.0703125 -0.835938 C 0.0703125 -0.707031 0.09375 -0.589844 0.140625 -0.480469 C 0.183594 -0.375 0.242188 -0.285156 0.320312 -0.207031 C 0.394531 -0.132812 0.484375 -0.0742188 0.582031 -0.03125 C 0.679688 0.0078125 0.785156 0.0273438 0.894531 0.0273438 C 1 0.0273438 1.097656 0.0078125 1.195312 -0.03125 C 1.292969 -0.0742188 1.382812 -0.132812 1.457031 -0.207031 C 1.53125 -0.285156 1.59375 -0.375 1.640625 -0.480469 C 1.6875 -0.589844 1.710938 -0.707031 1.710938 -0.835938 C 1.710938 -0.972656 1.6875 -1.101562 1.644531 -1.214844 C 1.601562 -1.332031 1.539062 -1.433594 1.464844 -1.515625 C 1.390625 -1.601562 1.304688 -1.667969 1.207031 -1.714844 C 1.109375 -1.761719 1.003906 -1.785156 0.894531 -1.785156 Z M 0.894531 -1.683594 C 0.949219 -1.683594 1.007812 -1.667969 1.0625 -1.644531 C 1.117188 -1.617188 1.167969 -1.570312 1.214844 -1.503906 C 1.257812 -1.441406 1.296875 -1.355469 1.324219 -1.246094 C 1.351562 -1.136719 1.363281 -1.003906 1.363281 -0.839844 C 1.363281 -0.75 1.359375 -0.660156 1.34375 -0.570312 C 1.332031 -0.480469 1.308594 -0.394531 1.273438 -0.320312 C 1.238281 -0.246094 1.191406 -0.1875 1.128906 -0.140625 C 1.066406 -0.09375 0.988281 -0.0703125 0.894531 -0.0703125 C 0.804688 -0.0703125 0.726562 -0.09375 0.667969 -0.140625 C 0.605469 -0.1875 0.554688 -0.246094 0.519531 -0.320312 C 0.484375 -0.394531 0.457031 -0.476562 0.441406 -0.570312 C 0.425781 -0.660156 0.417969 -0.75 0.417969 -0.839844 C 0.417969 -1.003906 0.433594 -1.136719 0.464844 -1.246094 C 0.496094 -1.355469 0.53125 -1.441406 0.578125 -1.503906 C 0.625 -1.570312 0.679688 -1.617188 0.734375 -1.644531 C 0.792969 -1.667969 0.84375 -1.683594 0.894531 -1.683594 Z "/>
</g>
<g id="glyph-0-2">
<path d="M 1.492188 -2.320312 C 1.582031 -2.316406 1.644531 -2.308594 1.679688 -2.296875 C 1.71875 -2.285156 1.738281 -2.257812 1.738281 -2.210938 C 1.738281 -2.179688 1.726562 -2.144531 1.707031 -2.113281 C 1.6875 -2.078125 1.648438 -2.027344 1.582031 -1.960938 C 1.519531 -1.894531 1.425781 -1.808594 1.304688 -1.695312 C 1.183594 -1.585938 1.019531 -1.4375 0.816406 -1.257812 L 0.816406 -1.996094 C 0.816406 -2.0625 0.820312 -2.117188 0.828125 -2.15625 C 0.835938 -2.195312 0.851562 -2.226562 0.878906 -2.25 C 0.902344 -2.273438 0.933594 -2.289062 0.976562 -2.300781 C 1.019531 -2.308594 1.078125 -2.316406 1.148438 -2.320312 L 1.148438 -2.390625 L 0.121094 -2.390625 L 0.121094 -2.320312 C 0.183594 -2.316406 0.234375 -2.308594 0.277344 -2.300781 C 0.320312 -2.292969 0.351562 -2.277344 0.378906 -2.257812 C 0.402344 -2.234375 0.421875 -2.203125 0.429688 -2.164062 C 0.441406 -2.121094 0.449219 -2.066406 0.449219 -1.996094 L 0.449219 -0.433594 C 0.449219 -0.359375 0.445312 -0.296875 0.4375 -0.253906 C 0.429688 -0.207031 0.414062 -0.171875 0.390625 -0.144531 C 0.367188 -0.117188 0.335938 -0.0976562 0.292969 -0.0898438 C 0.25 -0.078125 0.191406 -0.0703125 0.121094 -0.0703125 L 0.121094 0 L 1.140625 0 L 1.140625 -0.0703125 C 1.070312 -0.0703125 1.015625 -0.078125 0.972656 -0.0898438 C 0.929688 -0.101562 0.894531 -0.117188 0.871094 -0.140625 C 0.847656 -0.164062 0.835938 -0.199219 0.828125 -0.238281 C 0.820312 -0.277344 0.816406 -0.332031 0.816406 -0.394531 L 0.816406 -1.070312 L 0.910156 -1.144531 L 1.292969 -0.765625 C 1.324219 -0.734375 1.367188 -0.691406 1.417969 -0.632812 C 1.472656 -0.578125 1.523438 -0.519531 1.574219 -0.457031 C 1.625 -0.394531 1.667969 -0.335938 1.707031 -0.285156 C 1.742188 -0.230469 1.761719 -0.1875 1.761719 -0.160156 C 1.761719 -0.117188 1.742188 -0.09375 1.707031 -0.0859375 C 1.671875 -0.078125 1.605469 -0.0742188 1.507812 -0.0703125 L 1.507812 0 L 2.609375 0 L 2.609375 -0.0703125 C 2.558594 -0.0664062 2.511719 -0.0742188 2.46875 -0.0898438 C 2.421875 -0.105469 2.378906 -0.132812 2.335938 -0.164062 C 2.292969 -0.195312 2.246094 -0.238281 2.199219 -0.285156 C 2.152344 -0.335938 2.101562 -0.394531 2.042969 -0.457031 L 1.203125 -1.359375 L 1.886719 -2.039062 C 1.953125 -2.101562 2.007812 -2.152344 2.050781 -2.1875 C 2.097656 -2.222656 2.136719 -2.25 2.175781 -2.269531 C 2.214844 -2.289062 2.253906 -2.300781 2.292969 -2.304688 C 2.332031 -2.3125 2.382812 -2.316406 2.4375 -2.320312 L 2.4375 -2.390625 L 1.492188 -2.390625 Z "/>
</g>
</g>
</defs>
<g fill="rgb(53.333333%, 53.333333%, 53.333333%)" fill-opacity="1">
<use xlink:href="#glyph-0-0" x="30" y="20"/>
<use xlink:href="#glyph-0-1" x="32" y="20"/>
<use xlink:href="#glyph-0-2" x="34" y="20"/>
</g>
</svg>
