<?xml version="1.0" encoding="UTF-8"?>
<svg xmlns="http://www.w3.org/2000/svg" xmlns:xlink="http://www.w3.org/1999/xlink" width="1920" height="1080" viewBox="0 0 1920 1080">
<defs>
<g>
<g id="glyph-0-0">
<path d="M 0.132812 -1.199219 C 0.132812 -1.558594 0.246094 -1.859375 0.480469 -2.105469 C 0.71875 -2.359375 1.027344 -2.484375 1.398438 -2.484375 C 1.546875 -2.484375 1.695312 -2.457031 1.84375 -2.402344 C 1.992188 -2.347656 2.085938 -2.316406 2.121094 -2.316406 C 2.160156 -2.316406 2.191406 -2.332031 2.214844 -2.359375 C 2.238281 -2.386719 2.257812 -2.425781 2.273438 -2.480469 L 2.371094 -2.480469 L 2.371094 -1.636719 L 2.28125 -1.636719 C 2.195312 -1.820312 2.105469 -1.964844 2.015625 -2.070312 C 1.847656 -2.265625 1.652344 -2.363281 1.441406 -2.363281 C 1.207031 -2.363281 1.039062 -2.261719 0.929688 -2.0625 C 0.824219 -1.859375 0.769531 -1.574219 0.769531 -1.207031 C 0.769531 -0.90625 0.820312 -0.636719 0.917969 -0.402344 C 1.019531 -0.167969 1.210938 -0.0507812 1.496094 -0.0507812 C 1.648438 -0.0507812 1.753906 -0.0820312 1.804688 -0.144531 C 1.835938 -0.183594 1.851562 -0.238281 1.851562 -0.3125 L 1.851562 -0.691406 C 1.851562 -0.800781 1.816406 -0.875 1.75 -0.90625 C 1.707031 -0.929688 1.617188 -0.941406 1.484375 -0.941406 L 1.484375 -1.035156 L 2.722656 -1.035156 L 2.722656 -0.941406 C 2.597656 -0.9375 2.515625 -0.914062 2.476562 -0.867188 C 2.4375 -0.824219 2.414062 -0.738281 2.414062 -0.613281 L 2.414062 -0.152344 C 2.335938 -0.105469 2.207031 -0.0546875 2.027344 -0.00390625 C 1.847656 0.0429688 1.648438 0.0703125 1.429688 0.0703125 C 1.027344 0.0703125 0.707031 -0.0585938 0.46875 -0.308594 C 0.246094 -0.546875 0.132812 -0.84375 0.132812 -1.199219 Z "/>
</g>
<g id="glyph-0-1">
<path d="M 0.0664062 -0.0859375 C 0.136719 -0.09375 0.183594 -0.109375 0.210938 -0.136719 C 0.238281 -0.160156 0.25 -0.207031 0.253906 -0.277344 L 0.257812 -0.382812 L 0.257812 -1.367188 C 0.257812 -1.441406 0.246094 -1.492188 0.21875 -1.519531 C 0.191406 -1.546875 0.140625 -1.566406 0.0664062 -1.574219 L 0.0664062 -1.664062 L 0.75 -1.664062 L 0.75 -1.378906 C 0.828125 -1.480469 0.902344 -1.558594 0.976562 -1.617188 C 1.054688 -1.675781 1.140625 -1.703125 1.238281 -1.703125 C 1.3125 -1.703125 1.378906 -1.679688 1.4375 -1.632812 C 1.5 -1.585938 1.527344 -1.515625 1.527344 -1.425781 C 1.527344 -1.355469 1.507812 -1.296875 1.464844 -1.25 C 1.421875 -1.203125 1.371094 -1.179688 1.304688 -1.179688 C 1.226562 -1.179688 1.160156 -1.21875 1.105469 -1.289062 C 1.050781 -1.359375 1.007812 -1.394531 0.988281 -1.394531 C 0.9375 -1.394531 0.890625 -1.367188 0.839844 -1.308594 C 0.792969 -1.25 0.769531 -1.164062 0.769531 -1.050781 L 0.769531 -0.371094 C 0.769531 -0.25 0.785156 -0.175781 0.820312 -0.144531 C 0.855469 -0.113281 0.925781 -0.0976562 1.027344 -0.0859375 L 1.027344 0 L 0.0664062 0 Z "/>
</g>
<g id="glyph-0-2">
<path d="M 0.738281 -1.664062 L 0.738281 -0.4375 C 0.738281 -0.363281 0.746094 -0.3125 0.765625 -0.277344 C 0.796875 -0.21875 0.855469 -0.1875 0.945312 -0.1875 C 1.003906 -0.1875 1.0625 -0.207031 1.117188 -0.242188 C 1.148438 -0.261719 1.1875 -0.296875 1.234375 -0.34375 L 1.234375 -1.367188 C 1.234375 -1.441406 1.222656 -1.492188 1.191406 -1.523438 C 1.160156 -1.554688 1.101562 -1.570312 1.011719 -1.574219 L 1.011719 -1.664062 L 1.730469 -1.664062 L 1.730469 -0.363281 C 1.730469 -0.289062 1.742188 -0.234375 1.773438 -0.207031 C 1.800781 -0.179688 1.855469 -0.160156 1.9375 -0.152344 L 1.9375 -0.0703125 C 1.714844 -0.0507812 1.574219 -0.0351562 1.515625 -0.0234375 C 1.457031 -0.015625 1.363281 0.0117188 1.234375 0.0507812 L 1.234375 -0.1875 C 1.148438 -0.113281 1.078125 -0.0585938 1.023438 -0.03125 C 0.925781 0.0234375 0.820312 0.0507812 0.714844 0.0507812 C 0.597656 0.0507812 0.488281 0.015625 0.390625 -0.0585938 C 0.289062 -0.132812 0.238281 -0.265625 0.238281 -0.453125 L 0.238281 -1.367188 C 0.238281 -1.441406 0.226562 -1.492188 0.199219 -1.515625 C 0.175781 -1.539062 0.128906 -1.558594 0.0585938 -1.574219 L 0.0585938 -1.664062 Z "/>
</g>
<g id="glyph-0-3">
<path d="M 0.0585938 -0.0859375 C 0.121094 -0.101562 0.167969 -0.121094 0.191406 -0.148438 C 0.21875 -0.171875 0.234375 -0.226562 0.234375 -0.304688 L 0.234375 -2.144531 C 0.234375 -2.21875 0.21875 -2.269531 0.195312 -2.292969 C 0.171875 -2.316406 0.125 -2.335938 0.0585938 -2.351562 L 0.0585938 -2.441406 L 0.742188 -2.441406 L 0.742188 -0.304688 C 0.742188 -0.226562 0.753906 -0.171875 0.78125 -0.148438 C 0.808594 -0.125 0.851562 -0.101562 0.917969 -0.0859375 L 0.917969 0 L 0.0585938 0 Z "/>
</g>
<g id="glyph-0-4">
<path d="M 0.0820312 -0.828125 C 0.0820312 -1.105469 0.15625 -1.320312 0.300781 -1.476562 C 0.449219 -1.628906 0.628906 -1.703125 0.835938 -1.703125 C 0.953125 -1.703125 1.066406 -1.671875 1.171875 -1.609375 C 1.277344 -1.546875 1.355469 -1.460938 1.410156 -1.351562 C 1.453125 -1.269531 1.484375 -1.160156 1.5 -1.027344 C 1.507812 -0.964844 1.511719 -0.917969 1.511719 -0.886719 L 0.59375 -0.886719 C 0.601562 -0.742188 0.625 -0.617188 0.664062 -0.507812 C 0.734375 -0.308594 0.855469 -0.210938 1.035156 -0.210938 C 1.121094 -0.210938 1.199219 -0.238281 1.273438 -0.289062 C 1.320312 -0.320312 1.378906 -0.375 1.445312 -0.453125 L 1.527344 -0.398438 C 1.417969 -0.214844 1.289062 -0.0898438 1.140625 -0.0195312 C 1.046875 0.0273438 0.9375 0.0507812 0.8125 0.0507812 C 0.636719 0.0507812 0.46875 -0.0195312 0.3125 -0.160156 C 0.160156 -0.300781 0.0820312 -0.523438 0.0820312 -0.828125 Z M 1.066406 -1.019531 C 1.066406 -1.230469 1.050781 -1.378906 1.019531 -1.464844 C 0.988281 -1.550781 0.925781 -1.59375 0.835938 -1.59375 C 0.742188 -1.59375 0.675781 -1.542969 0.640625 -1.445312 C 0.605469 -1.347656 0.589844 -1.207031 0.582031 -1.019531 Z "/>
</g>
<g id="glyph-0-5">
<path d="M 0.289062 -1.398438 C 0.289062 -1.484375 0.316406 -1.554688 0.378906 -1.617188 C 0.4375 -1.675781 0.507812 -1.703125 0.59375 -1.703125 C 0.675781 -1.703125 0.75 -1.675781 0.808594 -1.613281 C 0.867188 -1.554688 0.898438 -1.484375 0.898438 -1.398438 C 0.898438 -1.316406 0.867188 -1.242188 0.808594 -1.183594 C 0.75 -1.125 0.675781 -1.09375 0.59375 -1.09375 C 0.507812 -1.09375 0.4375 -1.125 0.375 -1.183594 C 0.316406 -1.242188 0.289062 -1.316406 0.289062 -1.398438 Z M 0.289062 -0.253906 C 0.289062 -0.339844 0.316406 -0.410156 0.375 -0.46875 C 0.433594 -0.527344 0.507812 -0.558594 0.59375 -0.558594 C 0.675781 -0.558594 0.75 -0.527344 0.808594 -0.46875 C 0.867188 -0.410156 0.898438 -0.339844 0.898438 -0.253906 C 0.898438 -0.167969 0.867188 -0.0976562 0.808594 -0.0390625 C 0.75 0.0195312 0.675781 0.0507812 0.59375 0.0507812 C 0.507812 0.0507812 0.4375 0.0195312 0.375 -0.0390625 C 0.316406 -0.0976562 0.289062 -0.167969 0.289062 -0.253906 Z "/>
</g>
<g id="glyph-0-6">
<rect x="0" y="0" width="0" height="0" mask="url(#mask-0)"/>
</g>
<g id="glyph-0-7">
<path d="M 0.851562 -1.355469 C 0.785156 -1.355469 0.742188 -1.347656 0.722656 -1.324219 C 0.703125 -1.304688 0.691406 -1.269531 0.683594 -1.21875 C 0.679688 -1.191406 0.675781 -1.148438 0.671875 -1.09375 C 0.667969 -1.039062 0.667969 -0.980469 0.667969 -0.917969 C 0.667969 -0.792969 0.671875 -0.683594 0.675781 -0.589844 C 0.679688 -0.5 0.6875 -0.417969 0.703125 -0.351562 C 0.71875 -0.265625 0.742188 -0.195312 0.777344 -0.136719 C 0.8125 -0.078125 0.863281 -0.0507812 0.9375 -0.0507812 C 1.039062 -0.0507812 1.105469 -0.101562 1.136719 -0.203125 C 1.15625 -0.265625 1.164062 -0.394531 1.164062 -0.589844 C 1.164062 -0.882812 1.140625 -1.082031 1.089844 -1.191406 C 1.042969 -1.300781 0.960938 -1.355469 0.851562 -1.355469 Z M 1.695312 -2.390625 C 1.441406 -2.34375 1.234375 -2.242188 1.074219 -2.085938 C 0.914062 -1.929688 0.800781 -1.726562 0.738281 -1.480469 L 0.757812 -1.464844 C 0.800781 -1.480469 0.835938 -1.492188 0.867188 -1.5 C 0.925781 -1.511719 0.988281 -1.519531 1.050781 -1.519531 C 1.226562 -1.519531 1.382812 -1.460938 1.515625 -1.339844 C 1.644531 -1.222656 1.710938 -1.039062 1.710938 -0.796875 C 1.710938 -0.519531 1.632812 -0.308594 1.472656 -0.164062 C 1.316406 -0.0195312 1.132812 0.0507812 0.925781 0.0507812 C 0.699219 0.0507812 0.503906 -0.0390625 0.339844 -0.222656 C 0.179688 -0.402344 0.0976562 -0.652344 0.0976562 -0.972656 C 0.0976562 -1.410156 0.261719 -1.769531 0.585938 -2.046875 C 0.878906 -2.300781 1.25 -2.445312 1.695312 -2.480469 Z "/>
</g>
<g id="glyph-0-8">
<path d="M 0.3125 0.574219 C 0.421875 0.5 0.503906 0.433594 0.558594 0.375 C 0.65625 0.277344 0.707031 0.1875 0.707031 0.0976562 C 0.707031 0.0742188 0.699219 0.0546875 0.6875 0.0390625 C 0.675781 0.0234375 0.65625 0.0195312 0.632812 0.0195312 C 0.621094 0.0195312 0.605469 0.0195312 0.589844 0.0234375 C 0.570312 0.0273438 0.558594 0.0273438 0.550781 0.0273438 C 0.480469 0.0273438 0.417969 0 0.367188 -0.0507812 C 0.3125 -0.101562 0.289062 -0.167969 0.289062 -0.253906 C 0.289062 -0.34375 0.316406 -0.417969 0.371094 -0.472656 C 0.425781 -0.53125 0.496094 -0.558594 0.582031 -0.558594 C 0.691406 -0.558594 0.78125 -0.519531 0.847656 -0.445312 C 0.917969 -0.371094 0.953125 -0.269531 0.953125 -0.140625 C 0.953125 0.0546875 0.875 0.230469 0.71875 0.386719 C 0.632812 0.472656 0.511719 0.5625 0.355469 0.652344 Z "/>
</g>
<g id="glyph-0-9">
<path d="M 0.652344 -0.800781 C 0.652344 -0.507812 0.675781 -0.308594 0.714844 -0.207031 C 0.757812 -0.105469 0.820312 -0.0546875 0.902344 -0.0546875 C 1.007812 -0.0546875 1.078125 -0.148438 1.113281 -0.339844 C 1.132812 -0.445312 1.144531 -0.597656 1.144531 -0.800781 L 1.144531 -1.628906 C 1.144531 -1.921875 1.125 -2.121094 1.082031 -2.222656 C 1.039062 -2.324219 0.980469 -2.375 0.898438 -2.375 C 0.816406 -2.375 0.757812 -2.324219 0.714844 -2.21875 C 0.671875 -2.117188 0.652344 -1.917969 0.652344 -1.628906 Z M 0.0820312 -1.199219 C 0.0820312 -1.628906 0.179688 -1.964844 0.371094 -2.199219 C 0.523438 -2.386719 0.699219 -2.480469 0.898438 -2.480469 C 1.125 -2.480469 1.316406 -2.367188 1.472656 -2.136719 C 1.632812 -1.898438 1.710938 -1.597656 1.710938 -1.238281 C 1.710938 -0.816406 1.621094 -0.484375 1.441406 -0.25 C 1.289062 -0.0507812 1.109375 0.0507812 0.898438 0.0507812 C 0.75 0.0507812 0.625 0.0078125 0.519531 -0.0820312 C 0.414062 -0.167969 0.324219 -0.28125 0.253906 -0.417969 C 0.1875 -0.535156 0.144531 -0.667969 0.117188 -0.816406 C 0.101562 -0.90625 0.0898438 -1.03125 0.0820312 -1.199219 Z "/>
</g>
<g id="glyph-0-10">
<path d="M 0.0625 -0.0820312 C 0.445312 -0.5 0.695312 -0.789062 0.8125 -0.953125 C 0.992188 -1.199219 1.082031 -1.417969 1.082031 -1.609375 C 1.082031 -1.722656 1.046875 -1.824219 0.976562 -1.925781 C 0.910156 -2.023438 0.800781 -2.070312 0.65625 -2.070312 C 0.53125 -2.070312 0.421875 -2.027344 0.335938 -1.9375 C 0.289062 -1.890625 0.246094 -1.828125 0.210938 -1.746094 L 0.113281 -1.746094 C 0.191406 -1.996094 0.304688 -2.179688 0.445312 -2.300781 C 0.585938 -2.421875 0.742188 -2.480469 0.921875 -2.480469 C 1.085938 -2.480469 1.238281 -2.425781 1.375 -2.308594 C 1.511719 -2.191406 1.578125 -2.023438 1.578125 -1.796875 C 1.578125 -1.679688 1.546875 -1.558594 1.484375 -1.4375 C 1.417969 -1.3125 1.3125 -1.179688 1.160156 -1.035156 L 0.609375 -0.507812 L 0.609375 -0.480469 L 1.121094 -0.480469 C 1.300781 -0.480469 1.417969 -0.496094 1.472656 -0.523438 C 1.527344 -0.554688 1.582031 -0.632812 1.636719 -0.761719 L 1.722656 -0.761719 L 1.5625 0 L 0.0625 0 Z "/>
</g>
<g id="glyph-0-11">
<path d="M 0.242188 -0.0859375 C 0.425781 -0.0859375 0.542969 -0.113281 0.59375 -0.160156 C 0.644531 -0.210938 0.671875 -0.304688 0.671875 -0.445312 L 0.671875 -1.835938 C 0.671875 -1.925781 0.660156 -1.988281 0.640625 -2.027344 C 0.621094 -2.066406 0.582031 -2.082031 0.527344 -2.082031 C 0.496094 -2.082031 0.453125 -2.074219 0.390625 -2.054688 C 0.351562 -2.042969 0.300781 -2.023438 0.234375 -1.996094 L 0.234375 -2.089844 L 1.144531 -2.480469 L 1.207031 -2.480469 L 1.207031 -0.425781 C 1.207031 -0.292969 1.230469 -0.203125 1.269531 -0.15625 C 1.3125 -0.109375 1.421875 -0.0859375 1.59375 -0.0859375 L 1.59375 0 L 0.242188 0 Z "/>
</g>
</g>
<image id="source-10" x="0" y="0" width="0" height="0"/>
<mask id="mask-0">
<use xlink:href="#source-10"/>
</mask>
</defs>
<g fill="rgb(58.823529%, 80.784314%, 70.588235%)" fill-opacity="1">
<use xlink:href="#glyph-0-0" x="30" y="22.708008"/>
<use xlink:href="#glyph-0-1" x="33" y="22.708008"/>
<use xlink:href="#glyph-0-2" x="35" y="22.708008"/>
<use xlink:href="#glyph-0-3" x="37" y="22.708008"/>
<use xlink:href="#glyph-0-4" x="38" y="22.708008"/>
<use xlink:href="#glyph-0-5" x="40" y="22.708008"/>
<use xlink:href="#glyph-0-6" x="41" y="22.708008"/>
<use xlink:href="#glyph-0-7" x="42" y="22.708008"/>
<use xlink:href="#glyph-0-8" x="44" y="22.708008"/>
<use xlink:href="#glyph-0-9" x="45" y="22.708008"/>
<use xlink:href="#glyph-0-10" x="47" y="22.708008"/>
<use xlink:href="#glyph-0-11" x="49" y="22.708008"/>
</g>
</svg>
