<?xml version="1.0" encoding="UTF-8"?>
<svg xmlns="http://www.w3.org/2000/svg" xmlns:xlink="http://www.w3.org/1999/xlink" width="854" height="480" viewBox="0 0 854 480">
<defs>
<g>
<g id="glyph-0-0">
<path d="M 2.753906 -2.003906 L 2.714844 -3.003906 L 2.621094 -3.003906 C 2.613281 -2.96875 2.597656 -2.941406 2.578125 -2.921875 C 2.558594 -2.898438 2.535156 -2.882812 2.511719 -2.875 C 2.492188 -2.867188 2.472656 -2.863281 2.453125 -2.859375 C 2.433594 -2.859375 2.421875 -2.859375 2.417969 -2.859375 C 2.394531 -2.859375 2.359375 -2.863281 2.3125 -2.878906 C 2.265625 -2.894531 2.207031 -2.910156 2.140625 -2.929688 C 2.074219 -2.949219 1.996094 -2.96875 1.910156 -2.980469 C 1.824219 -2.996094 1.734375 -3.003906 1.636719 -3.003906 C 1.441406 -3.003906 1.257812 -2.972656 1.074219 -2.90625 C 0.894531 -2.839844 0.734375 -2.738281 0.59375 -2.609375 C 0.453125 -2.480469 0.339844 -2.320312 0.253906 -2.132812 C 0.167969 -1.941406 0.125 -1.71875 0.125 -1.472656 C 0.125 -1.195312 0.167969 -0.960938 0.253906 -0.765625 C 0.34375 -0.570312 0.457031 -0.410156 0.597656 -0.289062 C 0.738281 -0.167969 0.898438 -0.078125 1.074219 -0.0234375 C 1.253906 0.0351562 1.429688 0.0625 1.609375 0.0625 C 1.8125 0.0625 1.992188 0.0351562 2.140625 -0.0234375 C 2.292969 -0.0820312 2.417969 -0.144531 2.519531 -0.214844 C 2.617188 -0.285156 2.691406 -0.351562 2.738281 -0.410156 C 2.789062 -0.46875 2.8125 -0.5 2.8125 -0.503906 L 2.734375 -0.582031 C 2.699219 -0.550781 2.652344 -0.507812 2.59375 -0.457031 C 2.535156 -0.402344 2.464844 -0.355469 2.382812 -0.308594 C 2.300781 -0.261719 2.207031 -0.21875 2.097656 -0.183594 C 1.988281 -0.148438 1.863281 -0.132812 1.730469 -0.132812 C 1.589844 -0.132812 1.453125 -0.160156 1.320312 -0.207031 C 1.191406 -0.257812 1.074219 -0.335938 0.972656 -0.445312 C 0.871094 -0.550781 0.792969 -0.6875 0.730469 -0.855469 C 0.671875 -1.023438 0.640625 -1.226562 0.640625 -1.460938 C 0.640625 -1.621094 0.652344 -1.761719 0.671875 -1.878906 C 0.695312 -2 0.722656 -2.101562 0.761719 -2.1875 C 0.796875 -2.273438 0.835938 -2.34375 0.878906 -2.40625 C 0.921875 -2.464844 0.964844 -2.515625 1.007812 -2.554688 C 1.101562 -2.648438 1.210938 -2.714844 1.328125 -2.761719 C 1.445312 -2.804688 1.5625 -2.828125 1.675781 -2.828125 C 1.8125 -2.828125 1.933594 -2.804688 2.042969 -2.765625 C 2.152344 -2.722656 2.246094 -2.664062 2.328125 -2.589844 C 2.410156 -2.515625 2.476562 -2.429688 2.53125 -2.328125 C 2.585938 -2.226562 2.625 -2.121094 2.652344 -2.003906 Z "/>
</g>
<g id="glyph-0-1">
<path d="M 2.320312 -1.097656 C 2.320312 -1.257812 2.289062 -1.40625 2.230469 -1.539062 C 2.171875 -1.671875 2.09375 -1.785156 1.992188 -1.882812 C 1.890625 -1.980469 1.773438 -2.058594 1.636719 -2.113281 C 1.503906 -2.167969 1.359375 -2.195312 1.207031 -2.195312 C 1.058594 -2.195312 0.914062 -2.167969 0.78125 -2.113281 C 0.644531 -2.058594 0.527344 -1.980469 0.425781 -1.882812 C 0.324219 -1.785156 0.246094 -1.671875 0.1875 -1.539062 C 0.128906 -1.40625 0.0976562 -1.257812 0.0976562 -1.097656 C 0.0976562 -0.929688 0.128906 -0.777344 0.1875 -0.636719 C 0.246094 -0.5 0.324219 -0.378906 0.425781 -0.28125 C 0.527344 -0.179688 0.644531 -0.101562 0.78125 -0.046875 C 0.914062 0.0078125 1.058594 0.0351562 1.207031 0.0351562 C 1.359375 0.0351562 1.503906 0.0078125 1.636719 -0.046875 C 1.773438 -0.101562 1.890625 -0.179688 1.992188 -0.28125 C 2.09375 -0.382812 2.171875 -0.5 2.230469 -0.636719 C 2.289062 -0.773438 2.320312 -0.929688 2.320312 -1.097656 Z M 1.882812 -1.097656 C 1.882812 -0.964844 1.875 -0.835938 1.859375 -0.714844 C 1.839844 -0.589844 1.804688 -0.484375 1.757812 -0.390625 C 1.707031 -0.300781 1.640625 -0.226562 1.554688 -0.171875 C 1.464844 -0.117188 1.351562 -0.0898438 1.207031 -0.0898438 C 1.066406 -0.0898438 0.953125 -0.117188 0.863281 -0.171875 C 0.777344 -0.226562 0.707031 -0.300781 0.660156 -0.390625 C 0.609375 -0.484375 0.578125 -0.589844 0.558594 -0.714844 C 0.542969 -0.835938 0.535156 -0.964844 0.535156 -1.097656 C 0.535156 -1.222656 0.542969 -1.34375 0.558594 -1.460938 C 0.578125 -1.578125 0.609375 -1.679688 0.660156 -1.769531 C 0.707031 -1.859375 0.777344 -1.933594 0.863281 -1.988281 C 0.953125 -2.042969 1.066406 -2.070312 1.207031 -2.070312 C 1.351562 -2.070312 1.464844 -2.042969 1.554688 -1.988281 C 1.640625 -1.933594 1.707031 -1.863281 1.757812 -1.769531 C 1.808594 -1.679688 1.839844 -1.578125 1.859375 -1.460938 C 1.875 -1.34375 1.882812 -1.222656 1.882812 -1.097656 Z "/>
</g>
<g id="glyph-0-2">
<path d="M 2.175781 0 L 2.25 0 L 2.25 -1.8125 C 2.25 -1.867188 2.253906 -1.910156 2.265625 -1.945312 C 2.273438 -1.980469 2.292969 -2.007812 2.316406 -2.027344 C 2.339844 -2.046875 2.371094 -2.0625 2.414062 -2.070312 C 2.457031 -2.078125 2.511719 -2.085938 2.574219 -2.089844 L 2.574219 -2.160156 L 1.730469 -2.160156 L 1.730469 -2.089844 C 1.859375 -2.082031 1.949219 -2.0625 1.996094 -2.027344 C 2.046875 -1.992188 2.070312 -1.921875 2.070312 -1.8125 L 2.070312 -0.664062 L 0.707031 -2.160156 L 0.101562 -2.160156 L 0.101562 -2.089844 C 0.21875 -2.082031 0.308594 -2.042969 0.367188 -1.972656 L 0.460938 -1.875 L 0.460938 -0.363281 C 0.460938 -0.257812 0.441406 -0.183594 0.394531 -0.140625 C 0.351562 -0.0976562 0.261719 -0.0742188 0.125 -0.0703125 L 0.125 0 L 0.976562 0 L 0.976562 -0.0703125 C 0.839844 -0.0742188 0.75 -0.0976562 0.707031 -0.140625 C 0.664062 -0.183594 0.640625 -0.257812 0.640625 -0.363281 L 0.640625 -1.6875 Z "/>
</g>
<g id="glyph-0-3">
<path d="M 1.992188 -2.160156 L 1.914062 -2.160156 C 1.898438 -2.136719 1.882812 -2.113281 1.863281 -2.09375 C 1.84375 -2.074219 1.820312 -2.0625 1.796875 -2.0625 C 1.765625 -2.0625 1.734375 -2.070312 1.703125 -2.082031 C 1.671875 -2.09375 1.636719 -2.109375 1.59375 -2.128906 C 1.550781 -2.148438 1.5 -2.164062 1.441406 -2.175781 C 1.382812 -2.1875 1.308594 -2.195312 1.226562 -2.195312 C 1.039062 -2.195312 0.875 -2.167969 0.734375 -2.113281 C 0.589844 -2.058594 0.472656 -1.980469 0.375 -1.878906 C 0.277344 -1.777344 0.203125 -1.660156 0.152344 -1.519531 C 0.105469 -1.378906 0.078125 -1.226562 0.078125 -1.058594 C 0.078125 -0.890625 0.105469 -0.742188 0.152344 -0.605469 C 0.199219 -0.472656 0.265625 -0.355469 0.355469 -0.261719 C 0.445312 -0.167969 0.554688 -0.09375 0.683594 -0.0429688 C 0.816406 0.0078125 0.964844 0.0351562 1.128906 0.0351562 C 1.269531 0.0351562 1.390625 0.015625 1.496094 -0.0195312 C 1.605469 -0.0585938 1.695312 -0.105469 1.777344 -0.164062 C 1.855469 -0.21875 1.921875 -0.285156 1.976562 -0.351562 C 2.035156 -0.421875 2.082031 -0.488281 2.121094 -0.550781 L 2.050781 -0.59375 C 2.003906 -0.535156 1.957031 -0.476562 1.90625 -0.417969 C 1.851562 -0.359375 1.792969 -0.304688 1.722656 -0.253906 C 1.65625 -0.207031 1.578125 -0.167969 1.496094 -0.136719 C 1.410156 -0.105469 1.316406 -0.0898438 1.207031 -0.0898438 C 1.082031 -0.0898438 0.976562 -0.117188 0.890625 -0.175781 C 0.804688 -0.234375 0.730469 -0.308594 0.675781 -0.394531 C 0.621094 -0.484375 0.578125 -0.582031 0.554688 -0.691406 C 0.527344 -0.800781 0.515625 -0.910156 0.515625 -1.011719 C 0.515625 -1.160156 0.53125 -1.300781 0.558594 -1.429688 C 0.589844 -1.558594 0.632812 -1.667969 0.691406 -1.765625 C 0.75 -1.859375 0.828125 -1.933594 0.921875 -1.988281 C 1.011719 -2.042969 1.121094 -2.070312 1.246094 -2.070312 C 1.421875 -2.070312 1.578125 -2.019531 1.710938 -1.914062 C 1.84375 -1.808594 1.941406 -1.667969 2 -1.492188 L 2.070312 -1.492188 Z "/>
</g>
<g id="glyph-0-4">
<path d="M 0.09375 -2.160156 L 0.09375 -2.089844 C 0.164062 -2.082031 0.222656 -2.074219 0.265625 -2.0625 C 0.3125 -2.050781 0.347656 -2.03125 0.371094 -2.003906 C 0.394531 -1.976562 0.414062 -1.941406 0.421875 -1.898438 C 0.429688 -1.855469 0.433594 -1.796875 0.433594 -1.722656 L 0.433594 -0.703125 C 0.433594 -0.472656 0.511719 -0.289062 0.664062 -0.160156 C 0.8125 -0.03125 1.054688 0.0351562 1.386719 0.0351562 C 1.523438 0.0351562 1.644531 0.015625 1.75 -0.0273438 C 1.855469 -0.0703125 1.949219 -0.125 2.019531 -0.199219 C 2.09375 -0.269531 2.148438 -0.355469 2.183594 -0.457031 C 2.222656 -0.558594 2.238281 -0.667969 2.238281 -0.792969 L 2.238281 -1.664062 C 2.238281 -1.730469 2.242188 -1.789062 2.25 -1.835938 C 2.253906 -1.886719 2.269531 -1.929688 2.292969 -1.960938 C 2.3125 -1.996094 2.347656 -2.023438 2.394531 -2.042969 C 2.441406 -2.0625 2.503906 -2.078125 2.582031 -2.089844 L 2.582031 -2.160156 L 1.75 -2.160156 L 1.75 -2.089844 C 1.824219 -2.078125 1.882812 -2.0625 1.929688 -2.042969 C 1.972656 -2.023438 2.007812 -1.996094 2.027344 -1.960938 C 2.050781 -1.925781 2.066406 -1.886719 2.070312 -1.835938 C 2.078125 -1.789062 2.078125 -1.730469 2.078125 -1.664062 L 2.078125 -0.792969 C 2.078125 -0.71875 2.070312 -0.644531 2.050781 -0.566406 C 2.027344 -0.488281 1.992188 -0.417969 1.9375 -0.351562 C 1.882812 -0.285156 1.8125 -0.230469 1.722656 -0.1875 C 1.636719 -0.144531 1.523438 -0.125 1.386719 -0.125 C 1.183594 -0.125 1.039062 -0.175781 0.949219 -0.28125 C 0.863281 -0.386719 0.816406 -0.527344 0.816406 -0.703125 L 0.816406 -1.722656 C 0.816406 -1.777344 0.820312 -1.828125 0.820312 -1.871094 C 0.824219 -1.914062 0.835938 -1.953125 0.859375 -1.984375 C 0.882812 -2.015625 0.917969 -2.039062 0.960938 -2.058594 C 1.007812 -2.078125 1.074219 -2.089844 1.164062 -2.089844 L 1.164062 -2.160156 Z "/>
</g>
<g id="glyph-0-5">
<path d="M 0.398438 -0.398438 C 0.398438 -0.324219 0.394531 -0.261719 0.378906 -0.21875 C 0.367188 -0.175781 0.347656 -0.144531 0.316406 -0.121094 C 0.289062 -0.101562 0.253906 -0.0859375 0.210938 -0.078125 C 0.167969 -0.0742188 0.117188 -0.0703125 0.0625 -0.0703125 L 0.0625 0 L 1.125 0 L 1.125 -0.0703125 C 1.0625 -0.0703125 1.007812 -0.0742188 0.964844 -0.078125 C 0.921875 -0.0859375 0.890625 -0.101562 0.863281 -0.121094 C 0.835938 -0.144531 0.816406 -0.175781 0.800781 -0.21875 C 0.789062 -0.261719 0.78125 -0.324219 0.78125 -0.398438 L 0.78125 -1.011719 L 0.914062 -1.011719 L 1.667969 0 L 2.191406 0 L 2.191406 -0.0703125 C 2.113281 -0.09375 2.050781 -0.132812 2 -0.179688 C 1.949219 -0.230469 1.886719 -0.300781 1.8125 -0.390625 L 1.296875 -1.039062 C 1.472656 -1.070312 1.609375 -1.132812 1.703125 -1.222656 C 1.800781 -1.3125 1.847656 -1.433594 1.847656 -1.582031 C 1.847656 -1.691406 1.828125 -1.785156 1.785156 -1.859375 C 1.742188 -1.933594 1.683594 -1.992188 1.609375 -2.035156 C 1.535156 -2.078125 1.449219 -2.113281 1.351562 -2.132812 C 1.253906 -2.152344 1.148438 -2.160156 1.039062 -2.160156 L 0.0625 -2.160156 L 0.0625 -2.089844 C 0.121094 -2.089844 0.171875 -2.085938 0.214844 -2.078125 C 0.257812 -2.070312 0.292969 -2.054688 0.320312 -2.027344 C 0.347656 -2 0.367188 -1.960938 0.378906 -1.910156 C 0.394531 -1.859375 0.398438 -1.792969 0.398438 -1.710938 Z M 0.78125 -1.902344 C 0.78125 -1.953125 0.796875 -1.992188 0.828125 -2.015625 C 0.855469 -2.039062 0.910156 -2.054688 0.988281 -2.054688 C 1.125 -2.054688 1.234375 -2.015625 1.308594 -1.9375 C 1.382812 -1.859375 1.421875 -1.730469 1.421875 -1.542969 C 1.421875 -1.472656 1.40625 -1.414062 1.378906 -1.363281 C 1.351562 -1.3125 1.3125 -1.265625 1.265625 -1.230469 C 1.21875 -1.195312 1.164062 -1.167969 1.101562 -1.148438 C 1.039062 -1.128906 0.976562 -1.121094 0.910156 -1.121094 L 0.78125 -1.121094 Z "/>
</g>
<g id="glyph-0-6">
<path d="M 1.671875 -1.523438 L 1.601562 -1.523438 C 1.589844 -1.398438 1.554688 -1.316406 1.496094 -1.273438 C 1.433594 -1.230469 1.332031 -1.207031 1.183594 -1.207031 L 0.816406 -1.207031 L 0.816406 -1.933594 C 0.816406 -1.953125 0.820312 -1.972656 0.832031 -1.984375 C 0.839844 -1.996094 0.859375 -2.007812 0.882812 -2.015625 C 0.910156 -2.023438 0.949219 -2.027344 0.996094 -2.03125 C 1.046875 -2.035156 1.109375 -2.035156 1.191406 -2.035156 C 1.316406 -2.035156 1.417969 -2.027344 1.496094 -2.011719 C 1.574219 -1.996094 1.636719 -1.96875 1.679688 -1.9375 C 1.722656 -1.90625 1.753906 -1.863281 1.773438 -1.816406 C 1.792969 -1.765625 1.800781 -1.707031 1.804688 -1.640625 L 1.894531 -1.644531 L 1.863281 -2.160156 L 0.0976562 -2.160156 L 0.0976562 -2.089844 C 0.136719 -2.089844 0.175781 -2.085938 0.21875 -2.082031 C 0.257812 -2.078125 0.296875 -2.066406 0.328125 -2.050781 C 0.359375 -2.03125 0.382812 -2.003906 0.40625 -1.96875 C 0.425781 -1.933594 0.433594 -1.882812 0.433594 -1.820312 L 0.433594 -0.496094 C 0.433594 -0.425781 0.433594 -0.363281 0.429688 -0.3125 C 0.425781 -0.257812 0.410156 -0.214844 0.390625 -0.179688 C 0.367188 -0.144531 0.332031 -0.117188 0.289062 -0.0976562 C 0.246094 -0.078125 0.179688 -0.0703125 0.0976562 -0.0703125 L 0.0976562 0 L 1.9375 0 L 2.078125 -0.585938 L 1.992188 -0.585938 C 1.957031 -0.5 1.925781 -0.429688 1.894531 -0.367188 C 1.859375 -0.308594 1.816406 -0.261719 1.757812 -0.226562 C 1.699219 -0.191406 1.625 -0.164062 1.535156 -0.148438 C 1.441406 -0.132812 1.320312 -0.125 1.171875 -0.125 C 1.097656 -0.125 1.035156 -0.125 0.988281 -0.128906 C 0.941406 -0.132812 0.90625 -0.136719 0.882812 -0.148438 C 0.855469 -0.15625 0.839844 -0.167969 0.832031 -0.183594 C 0.824219 -0.199219 0.816406 -0.222656 0.816406 -0.25 L 0.816406 -1.085938 L 1.183594 -1.085938 C 1.332031 -1.085938 1.433594 -1.058594 1.496094 -1.007812 C 1.554688 -0.957031 1.589844 -0.867188 1.601562 -0.742188 L 1.671875 -0.742188 Z "/>
</g>
<g id="glyph-0-7">
<path d="M 1.414062 -0.949219 L 2.003906 -1.832031 C 2.035156 -1.875 2.0625 -1.914062 2.085938 -1.945312 C 2.109375 -1.980469 2.132812 -2.007812 2.15625 -2.027344 C 2.179688 -2.046875 2.207031 -2.0625 2.234375 -2.074219 C 2.265625 -2.082031 2.300781 -2.089844 2.347656 -2.089844 L 2.347656 -2.160156 L 1.679688 -2.160156 L 1.679688 -2.089844 C 1.71875 -2.089844 1.761719 -2.082031 1.804688 -2.074219 C 1.851562 -2.0625 1.875 -2.039062 1.875 -2 C 1.875 -1.957031 1.867188 -1.917969 1.847656 -1.882812 C 1.828125 -1.84375 1.804688 -1.804688 1.773438 -1.761719 L 1.351562 -1.097656 L 0.929688 -1.773438 C 0.898438 -1.820312 0.875 -1.859375 0.859375 -1.894531 C 0.84375 -1.925781 0.835938 -1.957031 0.835938 -1.992188 C 0.835938 -2.03125 0.851562 -2.058594 0.878906 -2.070312 C 0.910156 -2.082031 0.9375 -2.089844 0.960938 -2.089844 L 1.085938 -2.089844 L 1.085938 -2.160156 L 0.105469 -2.160156 L 0.105469 -2.089844 C 0.175781 -2.085938 0.230469 -2.070312 0.273438 -2.046875 C 0.316406 -2.023438 0.351562 -1.988281 0.378906 -1.945312 L 1.03125 -0.925781 L 1.03125 -0.328125 C 1.027344 -0.230469 1.003906 -0.164062 0.957031 -0.125 C 0.910156 -0.0859375 0.820312 -0.0664062 0.6875 -0.0703125 L 0.6875 0 L 1.75 0 L 1.75 -0.0703125 C 1.617188 -0.0664062 1.527344 -0.0859375 1.480469 -0.125 C 1.4375 -0.164062 1.414062 -0.230469 1.414062 -0.328125 Z "/>
</g>
</g>
</defs>
<g fill="rgb(73.333333%, 73.333333%, 73.333333%)" fill-opacity="1">
<use xlink:href="#glyph-0-0" x="30" y="20"/>
<use xlink:href="#glyph-0-1" x="33" y="20"/>
<use xlink:href="#glyph-0-2" x="35" y="20"/>
<use xlink:href="#glyph-0-3" x="38" y="20"/>
<use xlink:href="#glyph-0-4" x="40" y="20"/>
<use xlink:href="#glyph-0-5" x="43" y="20"/>
<use xlink:href="#glyph-0-5" x="45" y="20"/>
<use xlink:href="#glyph-0-6" x="47" y="20"/>
<use xlink:href="#glyph-0-2" x="49" y="20"/>
<use xlink:href="#glyph-0-3" x="52" y="20"/>
<use xlink:href="#glyph-0-7" x="54" y="20"/>
</g>
</svg>
